<svg xmlns="http://www.w3.org/2000/svg" width="2000" height="2000"><path d="M998.188 13.75l2.393-.002c28.233-.021 56.275.871 84.419 3.252l4.353.356c8.57.711 17.11 1.612 25.647 2.644l2.009.24c42.015 5.042 83.381 12.63 124.383 23.096l7.426 1.874c60.006 15.094 118.312 36.778 174.148 63.352l8.647 4.044c11.769 5.476 23.156 11.51 34.504 17.806l12.105 6.552c37.115 19.953 72.538 43.108 106.345 68.238l7.264 5.31c10.081 7.325 19.805 14.962 29.351 22.971l7.442 6.08c9.544 7.801 18.816 15.948 27.934 24.242l6.139 5.412c12.974 11.349 25.192 23.511 37.36 35.71l7.6 7.594 4.908 4.912 2.257 2.251c4.038 4.056 7.913 8.198 11.643 12.54 2.44 2.824 4.989 5.545 7.534 8.275 14.961 16.146 28.918 33.177 42.455 50.525l4.936 6.271c7.311 9.29 14.308 18.737 21.042 28.452l5.04 7.165c6.958 9.844 13.717 19.78 20.175 29.958l4.137 6.459c23.816 37.175 45.32 75.905 63.587 116.097l4.776 10.356c36.829 79.943 61.27 165.839 80.852 298.215l.236 2.148c1.085 9.938 1.98 19.886 2.764 29.852l.316 3.779c3.766 46.704 3.858 95.406-.136 142.097l-.555 6.786c-3.335 41.08-9.215 81.991-17.625 122.338l-.483 2.335c-8.332 40.19-19.15 79.774-32.758 118.5l-2.288 6.584c-11.199 32.356-24.423 63.803-39.118 94.723l-3.583 7.686c-4.466 9.688-9.315 19.142-14.358 28.541l-2.916 5.457c-7.789 14.626-15.94 28.983-24.495 43.174l-1.771 2.952c-7.132 11.878-14.391 23.621-22.229 35.048l-2.637 3.871c-13.868 20.312-28.005 40.477-43.504 59.586l-6.946 8.802c-5.843 7.534-12.022 14.731-18.308 21.898l-4.605 5.375c-5.776 6.826-11.699 13.47-17.842 19.969l-9.294 10.143c-4.588 5.103-9.355 9.993-14.212 14.838l-2.594 2.597-5.387 5.382-8.188 8.195-5.268 5.264-2.441 2.447c-4.219 4.202-8.51 8.255-13.032 12.131-2.758 2.381-5.398 4.887-8.055 7.379-4.87 4.535-9.884 8.812-15.074 12.98-2.612 2.143-5.117 4.368-7.613 6.645-4.195 3.814-8.505 7.441-12.914 11.004l-6.672 5.461c-9.457 7.805-19.185 15.165-29.113 22.36l-6.243 4.604c-42.126 31.178-87.428 58.248-134.059 82.07l-2.115 1.083-11.552 5.771-5.108 2.522c-80.533 39.886-167.203 66.699-302.483 90.133l-9.988 1.354c-19.324 2.584-38.819 3.774-58.27 4.982l-4.782.307c-17.277 1.13-34.583 1.091-51.889 1.098l-2.393.002c-28.233.021-56.275-.871-84.419-3.252l-4.353-.356c-8.57-.711-17.11-1.611-25.647-2.644l-2.059-.247C798.668 1969.582 715.758 1948.636 589 1897l-3.924-1.805c-15.086-6.94-30.112-13.946-44.695-21.901l-8.017-4.302c-10.322-5.518-20.555-11.175-30.676-17.055l-2.704-1.565c-16.195-9.488-31.876-19.83-47.484-30.247l-2.581-1.72c-11.503-7.676-22.862-15.455-33.858-23.848l-6.804-5.01c-10.108-7.333-19.853-14.985-29.418-23.012l-7.777-6.348c-4.313-3.519-8.439-7.207-12.551-10.957-2.506-2.226-5.081-4.326-7.699-6.418-6.528-5.283-12.577-11.045-18.671-16.814l-4.59-4.202c-9.217-8.309-17.972-17.066-26.735-25.85l-7.924-7.918-5.1-5.104-2.362-2.355c-4.127-4.145-8.1-8.368-11.91-12.808-2.435-2.821-4.981-5.537-7.521-8.263-11.494-12.405-22.364-25.355-33-38.5l-1.362-1.678C219.186 1603.966 207.494 1588.08 196 1572l-1.58-2.209c-24.861-34.832-46.733-71.533-67.02-109.193l-2.688-4.961c-7.606-13.964-14.292-28.333-20.875-42.8l-2.491-5.442C81.546 1364.216 65.108 1319.657 52 1274l-.637-2.211C35.749 1217.547 25.105 1162.101 19 1106l-.236-2.148c-1.085-9.938-1.98-19.886-2.764-29.852l-.316-3.779C8.752 984.268 15.174 896.53 45 752l.933-3.657C50.374 731.048 55.544 714 61 697l1.167-3.656c12.786-39.839 28.537-78.568 46.431-116.374l3.644-7.826c4.463-9.678 9.308-19.123 14.347-28.514l2.916-5.457C150.606 495.552 174.607 457.324 201 421l1.677-2.312c7.561-10.401 15.27-20.662 23.323-30.687l1.542-1.924A943.53 943.53 0 0 1 251 358l1.988-2.297 11.844-13.285 5.355-6.105c11.023-12.601 22.817-24.477 34.665-36.295l7.621-7.627 4.926-4.922 2.261-2.267c4.068-4.05 8.222-7.937 12.577-11.676 2.764-2.39 5.412-4.901 8.076-7.401 4.87-4.535 9.884-8.812 15.074-12.98 2.612-2.143 5.117-4.368 7.613-6.645 4.195-3.814 8.505-7.441 12.914-11.004l6.672-5.461c10.19-8.41 20.719-16.282 31.414-24.035l4.645-3.387C451.069 179.016 484.799 157.221 520 138l3.16-1.728 18.205-9.853 6.932-3.775c12.646-6.895 25.75-12.832 38.852-18.8l5.465-2.503C622.813 87.494 653.554 75.665 685 65l2.181-.742c82.178-27.899 167.865-44.263 254.499-49.125l6.76-.419c16.564-1.013 33.158-.957 49.747-.964z" fill="#fee22f"/><path d="M986 503h28l23.056 46.756 11.465 23.265 11.335 23.334L1070 617l12.855 26.355L1093 664l12.855 26.355L1116 711l12.855 26.355L1139 758l12.855 26.355L1162 805l12.855 26.355L1185 852l12.855 26.355 11.646 23.629 11.846 24.355 1.277 2.691 1.207 2.547 3.48 6.953C1229 942 1229 942 1229 944h-97l-15.621-30.109-1.425-2.847-2.931-5.867-4.369-8.731-13.752-28.148-14.465-29.484-1.154-2.303L1070 820l-9.437-18.812-1.158-2.312-12.842-26.259c-4.723-9.989-9.662-19.864-14.625-29.734l-1.219-2.426-11.288-22.425-6.243-12.412-2.354-4.667c-3.798-7.504-7.503-14.836-9.833-22.953h-2l-.499 1.642c-1.848 5.836-4.214 11.191-6.982 16.643l-1.337 2.67-4.37 8.677-3.069 6.119-8.095 16.101-12.868 25.611-4.444 8.83-15.362 31.397-11.838 24.113-3.565 7.107-8.841 17.62L909 861.938l-1.216 2.427-15.09 30.88-13.014 26.525-4.02 8.046-2.574 5.145-1.205 2.417c-2.765 5.507-2.765 5.507-3.88 6.622-3.014.095-6.004.126-9.018.114h-2.867l-9.431-.016-6.52-.004-17.198-.025-17.534-.02L771 944c1.204-3.681 2.451-7.14 4.215-10.59l1.312-2.589 1.41-2.758 11.5-23.437L801 881l11.5-23.5L824 834l11.438-23.375 13.724-27.929 11.745-24.153 11.614-23.563 9.98-20.48 13.02-26.52 9.98-20.48 13.02-26.52 9.98-20.48 13.02-26.52 9.98-20.48 13.006-26.493 11.666-23.995L986 503zm-215 553h97l16.934 32.734 1.829 3.654 3.778 7.561 4.732 9.461 16.981 34.604 14.527 29.609 1.188 2.371L936.5 1193l9.719 19.375 1.189 2.374 14.425 29.564 12.46 25.3 1.097 2.186 10.115 20.115 5.601 11.148 2.118 4.207 2.921 5.811 1.676 3.329C999 1319 999 1319 999 1321h2l.761-2.51c1.404-3.957 3.161-7.593 5.055-11.334l1.159-2.314 3.802-7.557 2.67-5.324 7.055-14.044 12.525-24.944 1.363-2.717 15.521-31.717 12.651-25.726 1.156-2.308 9.479-18.889 8.24-16.428 1.154-2.304 14.357-29.413 17.217-34.931 4.979-9.962 3.876-7.751 1.84-3.682 2.539-5.071 1.454-2.905C1131 1057 1131 1057 1132 1056c3.014-.095 6.004-.126 9.018-.114h2.867l9.431.016 6.52.004 17.198.025 17.534.02L1229 1056a83.73 83.73 0 0 1-5.09 12.34l-.91 1.802-1.933 3.816-5.115 10.14-1.032 2.052-8.609 17.725-12.833 26.146-9.98 20.479-13.02 26.52-9.98 20.48-11.5 23.5-11.437 23.375-13.724 27.929-11.745 24.153-11.614 23.563-9.98 20.48-13.02 26.52-9.98 20.48-13.02 26.52-9.98 20.48-12.998 26.476-14.456 29.84L1014 1497h-28l-19.904-40.451-11.616-23.569-11.336-23.335L933 1389l-12.855-26.355L910 1342l-12.855-26.355L887 1295l-12.855-26.355L864 1248l-12.855-26.355L841 1201l-12.855-26.355L818 1154l-12.855-26.355-11.653-23.642-11.674-24.015a678.72 678.72 0 0 0-9.673-19.538C771 1058 771 1058 771 1056z" fill="#252525"/></svg>